<mxfile host="app.diagrams.net" modified="2024-07-15T06:32:00.263Z" agent="Mozilla/5.0 (Macintosh; Intel Mac OS X 10_15_7) AppleWebKit/537.36 (KHTML, like Gecko) Chrome/126.0.0.0 Safari/537.36" version="24.6.4" etag="tN_3IhcNntRf-YuaNjJU" type="github">
  <diagram name="第 1 页" id="Q4N3u0yQm_l5Su8slSqA">
    <mxGraphModel>
      <root>
        <mxCell id="0" />
        <mxCell id="1" parent="0" />
      </root>
    </mxGraphModel>
  </diagram>
</mxfile>
